<?xml version="1.0" encoding="UTF-8" standalone="no" ?>
<!DOCTYPE svg PUBLIC "-//W3C//DTD SVG 1.1//EN" "http://www.w3.org/Graphics/SVG/1.1/DTD/svg11.dtd">
<svg xmlns="http://www.w3.org/2000/svg" xmlns:xlink="http://www.w3.org/1999/xlink" version="1.1" width="1080" height="1080" viewBox="0 0 1080 1080" xml:space="preserve">
<desc>Created with Fabric.js 5.2.4</desc>
<defs>
</defs>
<g transform="matrix(1 0 0 1 540 540)" id="26d6d2f1-7c2f-40f0-8ecd-75e8a71ebdf6"  >
<rect style="stroke: none; stroke-width: 1; stroke-dasharray: none; stroke-linecap: butt; stroke-dashoffset: 0; stroke-linejoin: miter; stroke-miterlimit: 4; fill: rgb(255,255,255); fill-rule: nonzero; opacity: 1; visibility: hidden;" vector-effect="non-scaling-stroke"  x="-540" y="-540" rx="0" ry="0" width="1080" height="1080" />
</g>
<g transform="matrix(1 0 0 1 540 540)" id="8819805c-524d-4510-bd78-3f60ae9544e8"  >
</g>
<g transform="matrix(14.6 0 0 14.6 556.36 679.73)"  >
<g style=""   >
		<g transform="matrix(1 0 0 1 -13 -10)"  >
<path style="stroke: none; stroke-width: 1; stroke-dasharray: none; stroke-linecap: butt; stroke-dashoffset: 0; stroke-linejoin: miter; stroke-miterlimit: 4; fill: rgb(255,255,255); fill-rule: nonzero; opacity: 1;" vector-effect="non-scaling-stroke"  transform=" translate(-27, -40)" d="M 32 67 L 22 67 L 22 13 L 32 13 L 32 67 z M 24 65 L 30 65 L 30 15 L 24 15 L 24 65 z" stroke-linecap="round" />
</g>
		<g transform="matrix(1 0 0 1 -5.5 -10)"  >
<polygon style="stroke: none; stroke-width: 1; stroke-dasharray: none; stroke-linecap: butt; stroke-dashoffset: 0; stroke-linejoin: miter; stroke-miterlimit: 4; fill: rgb(255,255,255); fill-rule: nonzero; opacity: 1;" vector-effect="non-scaling-stroke"  points="4.5,27 -4.5,27 -4.5,-27 4.5,-27 4.5,-25 -2.5,-25 -2.5,25 4.5,25 " />
</g>
		<g transform="matrix(1 0 0 1 11 -10)"  >
<path style="stroke: none; stroke-width: 1; stroke-dasharray: none; stroke-linecap: butt; stroke-dashoffset: 0; stroke-linejoin: miter; stroke-miterlimit: 4; fill: rgb(255,255,255); fill-rule: nonzero; opacity: 1;" vector-effect="non-scaling-stroke"  transform=" translate(-51, -40)" d="M 56 67 L 46 67 L 46 13 L 56 13 L 56 67 z M 48 65 L 54 65 L 54 15 L 48 15 L 48 65 z" stroke-linecap="round" />
</g>
		<g transform="matrix(1 0 0 1 -1 -18)"  >
<path style="stroke: none; stroke-width: 1; stroke-dasharray: none; stroke-linecap: butt; stroke-dashoffset: 0; stroke-linejoin: miter; stroke-miterlimit: 4; fill: rgb(255,255,255); fill-rule: nonzero; opacity: 1;" vector-effect="non-scaling-stroke"  transform=" translate(-39, -32)" d="M 48 39 L 30 39 L 30 25 L 48 25 L 48 39 z M 32 37 L 46 37 L 46 27 L 32 27 L 32 37 z" stroke-linecap="round" />
</g>
		<g transform="matrix(1 0 0 1 3 -10)"  >
<polygon style="stroke: none; stroke-width: 1; stroke-dasharray: none; stroke-linecap: butt; stroke-dashoffset: 0; stroke-linejoin: miter; stroke-miterlimit: 4; fill: rgb(255,255,255); fill-rule: nonzero; opacity: 1;" vector-effect="non-scaling-stroke"  points="5,27 -5,27 -5,1 -3,1 -3,25 3,25 3,-25 -3,-25 -3,-17 -5,-17 -5,-27 5,-27 " />
</g>
</g>
</g>
</svg>