<svg xmlns="http://www.w3.org/2000/svg" width="64" height="64" fill="none" viewBox="0 0 64 64"><circle cx="32" cy="32" r="32" fill="#162447"/><path fill="#fff" d="M21.58 43C20.76 41.26 19.95 39.45 19.15 37.57C18.35 35.69 17.59 33.83 16.87 31.99C16.15 30.15 15.48 28.39 14.86 26.71C14.26 25.03 13.74 23.53 13.3 22.21H18.46C18.86 23.41 19.29 24.71 19.75 26.11C20.23 27.49 20.71 28.87 21.19 30.25C21.69 31.63 22.17 32.95 22.63 34.21C23.09 35.47 23.52 36.56 23.92 37.48C24.3 36.56 24.72 35.47 25.18 34.21C25.66 32.95 26.14 31.63 26.62 30.25C27.12 28.87 27.6 27.49 28.06 26.11C28.54 24.71 28.98 23.41 29.38 22.21H34.36C33.9 23.53 33.37 25.03 32.77 26.71C32.17 28.39 31.51 30.15 30.79 31.99C30.07 33.83 29.31 35.69 28.51 37.57C27.71 39.45 26.9 41.26 26.08 43H21.58ZM43.3204 31.84C43.7804 31.84 44.2604 31.8 44.7604 31.72C45.2604 31.62 45.6304 31.49 45.8704 31.33V31.06C45.8704 30.98 45.8704 30.9 45.8704 30.82C45.8904 30.74 45.9004 30.67 45.9004 30.61C45.8804 29.89 45.8204 29.22 45.7204 28.6C45.6204 27.96 45.4504 27.41 45.2104 26.95C44.9704 26.47 44.6404 26.1 44.2204 25.84C43.8204 25.56 43.3204 25.42 42.7204 25.42C42.2404 25.42 41.8204 25.52 41.4604 25.72C41.1004 25.92 40.8104 26.18 40.5904 26.5C40.3704 26.82 40.2004 27.17 40.0804 27.55C39.9804 27.93 39.9304 28.3 39.9304 28.66C39.9304 29.74 40.1904 30.54 40.7104 31.06C41.2504 31.58 42.1204 31.84 43.3204 31.84ZM45.5104 34.75C45.0904 34.95 44.6204 35.1 44.1004 35.2C43.6004 35.28 43.1704 35.32 42.8104 35.32C41.5104 35.32 40.4004 35.17 39.4804 34.87C38.5604 34.55 37.8004 34.11 37.2004 33.55C36.6204 32.97 36.1904 32.28 35.9104 31.48C35.6304 30.68 35.4904 29.8 35.4904 28.84C35.4904 28.04 35.6204 27.22 35.8804 26.38C36.1604 25.54 36.5904 24.78 37.1704 24.1C37.7504 23.4 38.4804 22.83 39.3604 22.39C40.2604 21.93 41.3404 21.7 42.6004 21.7C45.1804 21.7 47.1204 22.5 48.4204 24.1C49.7404 25.68 50.4004 27.96 50.4004 30.94C50.4004 32.9 50.1404 34.63 49.6204 36.13C49.1204 37.63 48.3304 38.89 47.2504 39.91C46.1904 40.93 44.8304 41.71 43.1704 42.25C41.5104 42.77 39.5404 43.04 37.2604 43.06C37.2404 42.42 37.2104 41.8 37.1704 41.2C37.1304 40.6 37.0904 39.98 37.0504 39.34C38.1904 39.32 39.2204 39.24 40.1404 39.1C41.0604 38.94 41.8704 38.69 42.5704 38.35C43.2704 37.99 43.8604 37.52 44.3404 36.94C44.8404 36.36 45.2304 35.63 45.5104 34.75Z"/></svg>