<svg id="livepatch-_warning" data-name="livepatch- warning" xmlns="http://www.w3.org/2000/svg" viewBox="0 0 19 19"><defs><style>.cls-1{fill:none;}.cls-2{fill:#ccc;}.cls-3{fill:#e95420;}.cls-4{fill:#fff;}</style></defs><title>Artboard 1</title><g id="layer1"><rect id="rect4782" class="cls-1" x="-0.03" y="0.09" width="19.07" height="19.07"/><path id="path4210" class="cls-2" d="M9.5.49S7.56,3.75,2.35,3.75c0,11.1,7.15,15,7.15,15s7.16-3.91,7.16-15C11.47,3.75,9.5.49,9.5.49Z"/></g><path id="path4155" class="cls-3" d="M13.56,7.59A4.4,4.4,0,1,0,18,12,4.4,4.4,0,0,0,13.56,7.59Z"/><path id="path4159" class="cls-4" d="M13.06,9.07v.84c0,.54,0,1.05,0,1.51s.07.91.12,1.38h.67q.07-.71.12-1.38c0-.46,0-1,0-1.51V9.07Zm.5,4.84a.63.63,0,0,0-.44.19.57.57,0,0,0-.18.44.61.61,0,0,0,.18.45.66.66,0,0,0,.44.17A.64.64,0,0,0,14,15a.61.61,0,0,0,.18-.45A.57.57,0,0,0,14,14.1.62.62,0,0,0,13.56,13.91Z"/></svg>