<svg xmlns="http://www.w3.org/2000/svg" width="16" height="16"><path style="marker:none" fill="#fff" d="M3.805 3C3.268 3 3 3 3 3.625v.75C3 5 3.268 5 3.805 5h.39C4.732 5 5 5 5 4.375v-.75C5 3.022 4.732 3 4.195 3zm4 0C7.268 3 7 3 7 3.625v.75C7 5 7.268 5 7.805 5h.39C8.732 5 9 5 9 4.375v-.75C9 3.022 8.732 3 8.195 3zm4 0C11.268 3 11 3 11 3.625v.75c0 .625.268.625.805.625h.39C12.732 5 13 5 13 4.375v-.75c0-.603-.268-.625-.805-.625zm-8 4C3.268 7 3 7 3 7.625v.75C3 9 3.268 9 3.805 9h.39C4.732 9 5 9 5 8.375v-.75C5 7.022 4.732 7 4.195 7zm4 0C7.268 7 7 7 7 7.625v.75C7 9 7.268 9 7.805 9h.39C8.732 9 9 9 9 8.375v-.75C9 7.022 8.732 7 8.195 7zm4 0C11.268 7 11 7 11 7.625v.75c0 .625.268.625.805.625h.39C12.732 9 13 9 13 8.375v-.75c0-.603-.268-.625-.805-.625zm-8 4C3.268 11 3 11 3 11.625v.75c0 .625.268.625.805.625h.39C4.732 13 5 13 5 12.375v-.75c0-.603-.268-.625-.805-.625zm4 0C7.268 11 7 11 7 11.625v.75c0 .625.268.625.805.625h.39C8.732 13 9 13 9 12.375v-.75c0-.603-.268-.625-.805-.625zm4 0c-.537 0-.805 0-.805.625v.75c0 .625.268.625.805.625h.39c.537 0 .805 0 .805-.625v-.75c0-.603-.268-.625-.805-.625z" color="#000" overflow="visible"/></svg>