<svg xmlns="http://www.w3.org/2000/svg" xmlns:osb="http://www.openswatchbook.org/uri/2009/osb" xmlns:svg="http://www.w3.org/2000/svg" width="16" height="16" version="1.1"><rect id="backgroundrect" width="100%" height="100%" x="0" y="0" fill="none" stroke="none"/><metadata id="metadata20854"/><defs id="defs7386"><linearGradient id="linearGradient5606" osb:paint="solid"><stop id="stop5608" offset="0" style="stop-color:#000;stop-opacity:1"/></linearGradient><linearGradient id="linearGradient4526" osb:paint="solid"><stop id="stop4528" offset="0" style="stop-color:#fff;stop-opacity:1"/></linearGradient><linearGradient id="linearGradient3600-4" osb:paint="gradient"><stop id="stop3602-7" offset="0" style="stop-color:#f4f4f4;stop-opacity:1"/><stop id="stop3604-6" offset="1" style="stop-color:#dbdbdb;stop-opacity:1"/></linearGradient></defs><g class="currentLayer"><title>Layer 1</title><g id="layer3" fill="#fff" fill-opacity="1" class="selected" style="display:inline"><path id="path3062" fill="#fff" fill-opacity="1" d="m1,0 v1 h9 v4 h4 v4.7495 l1,0.6250000000000001 V5 V4.25 L10.75,0 H10 z" style="color:#000;display:inline;overflow:visible;visibility:visible;fill-rule:nonzero;stroke:none;stroke-width:4;marker:none"/><path id="rect3006" fill="#fff" fill-opacity="1" d="m0,3 v10 h16 zm1.0332,1.8418 c3.79931,2.37969 7.60343,4.7517000000000005 11.4043,7.1289 c-3.80303,0.005000000000000001 -7.60713,0.003000000000000001 -11.41016,0.004000000000000001 c0,-2.1429 -0.0020000000000000005,-4.2868 0.0020000000000000005,-6.42969 h0.0020000000000000005 c0.001,-0.23467 0.001,-0.46846000000000004 0.0020000000000000005,-0.7031200000000001 z" style="display:inline;opacity:1;vector-effect:none;stroke:none;stroke-width:1.00157;stroke-linecap:round;stroke-linejoin:round;stroke-miterlimit:4;stroke-dasharray:none;stroke-dashoffset:0;stroke-opacity:1"/><path id="path3034" fill="#fff" fill-opacity="1" d="m2.0468799999999874,6.675779999999975 c-0.00038999999999999994,0.12542 0.00023999999999999998,0.25153 0,0.37695000000000006 l-0.0020000000000000005,-0.0020000000000000005 c-0.0020000000000000005,1.30226 0,2.6059400000000004 0,3.9082 c2.28667,-0.00047 4.57271,0.000049999999999999996 6.85938,-0.0020000000000000005 c-2.28486,-1.42876 -4.57033,-2.8560600000000003 -6.85742,-4.28125 zm1.01367,1.82617 c0.7686800000000001,0.47958000000000006 1.5379900000000002,0.9598500000000001 2.30664,1.43946 h-2.30664 v-1.1211 z" style="display:inline;opacity:1;vector-effect:none;stroke:none;stroke-width:1.00157;stroke-linecap:round;stroke-linejoin:round;stroke-miterlimit:4;stroke-dasharray:none;stroke-dashoffset:0;stroke-opacity:1"/><rect id="rect3125" width="14" height="1" x="1" y="15" fill="#fff" fill-opacity="1" style="display:inline;opacity:1;vector-effect:none;stroke:none;stroke-width:1.00157;stroke-linecap:round;stroke-linejoin:round;stroke-miterlimit:4;stroke-dasharray:none;stroke-dashoffset:0;stroke-opacity:1"/><rect id="rect3127" width="1" height="2" x="1" y="14" fill="#fff" fill-opacity="1" style="display:inline;opacity:1;vector-effect:none;stroke:none;stroke-width:1.00157;stroke-linecap:round;stroke-linejoin:round;stroke-miterlimit:4;stroke-dasharray:none;stroke-dashoffset:0;stroke-opacity:1"/><rect id="rect3127-0" width="1" height="2" x="14.054" y="14" fill="#fff" fill-opacity="1" style="display:inline;opacity:1;vector-effect:none;stroke:none;stroke-width:1.00157;stroke-linecap:round;stroke-linejoin:round;stroke-miterlimit:4;stroke-dasharray:none;stroke-dashoffset:0;stroke-opacity:1"/><path id="rect3127-6" fill="#fff" fill-opacity="1" d="m1,0 h1 v2.6 l-1,-0.6000000000000001 z" style="display:inline;opacity:1;vector-effect:none;stroke:none;stroke-width:1.00157;stroke-linecap:round;stroke-linejoin:round;stroke-miterlimit:4;stroke-dasharray:none;stroke-dashoffset:0;stroke-opacity:1"/></g></g></svg>