<svg xmlns="http://www.w3.org/2000/svg" width="16" height="16"><g color="#000"><path fill="gray" d="M1001.003-265c-2.61 0-5.22.838-7.4 2.518l-.266.205.205.263 7.457 9.672 7.668-9.931-.264-.206a12.105 12.105 0 0 0-7.4-2.521zm0 1c2.181 0 4.344.672 6.227 1.951l-6.229 8.07-6.226-8.074c1.883-1.278 4.047-1.948 6.228-1.947z" font-family="sans-serif" font-weight="400" overflow="visible" transform="translate(-993 267)" white-space="normal" style="line-height:normal;font-variant-ligatures:none;font-variant-position:normal;font-variant-caps:normal;font-variant-numeric:normal;font-variant-alternates:normal;font-feature-settings:normal;text-indent:0;text-align:start;text-decoration-line:none;text-decoration-style:solid;text-decoration-color:#000;text-transform:none;shape-padding:0;isolation:auto;mix-blend-mode:normal;marker:none"/><path fill="#fff" d="M995.427-260.103a9.129 9.125 0 0 1 11.15.003l-5.577 7.225z" overflow="visible" transform="translate(-993 267)" style="marker:none"/></g></svg>