<svg xmlns="http://www.w3.org/2000/svg" width="16" height="16"><g color="#000"><path fill="#fff" d="M1236 0a1 1 0 0 0-1 1 1 1 0 0 0 .01.096c.026 1.588.697 3.156 1.856 4.248 1.097 1.06 2.614 1.643 4.134 1.648V6.78a5.423 5.423 0 0 1-1.96-.345c-.196-.134-.474-.19-.686-.323-.962-.497-1.798-1.27-2.318-2.218 0-.064.06.02.053.044a5.577 5.577 0 0 0 2.96 2.424c.17-.012.34.125.514.14.468.127.953.189 1.438.19v-.158a5.222 5.222 0 0 1-1.877-.334c-.187-.129-.452-.182-.655-.31-.918-.476-1.72-1.214-2.216-2.121-.01-.064.056.015.05.043a5.36 5.36 0 0 0 2.827 2.316c.146-.032.298.112.449.12.462.128.942.193 1.422.194v-.156a4.97 4.97 0 0 1-1.795-.322c-.198-.126-.464-.19-.674-.32-.854-.455-1.599-1.15-2.062-2-.01-.063.059.016.049.04.6 1.019 1.582 1.832 2.695 2.208.142-.024.284.106.43.115.44.123.9.186 1.357.187v-.16a4.72 4.72 0 0 1-1.709-.304c-.187-.123-.443-.181-.643-.307-.813-.433-1.524-1.095-1.964-1.904-.01-.061.059.013.05.039a4.827 4.827 0 0 0 2.567 2.1c.136-.026.273.1.412.109.42.117.853.176 1.287.177v-.158a4.386 4.386 0 0 1-1.617-.293c-.22-.114-.479-.198-.7-.332-.739-.411-1.387-1.023-1.79-1.767 0-.056.068-.002.057.035a4.577 4.577 0 0 0 2.443 1.994c.141-.026.287.105.432.113.383.103.78.153 1.176.154v-.152a4.23 4.23 0 0 1-1.532-.277c-.192-.108-.429-.175-.625-.295-.717-.39-1.346-.979-1.734-1.697-.01-.057.066-.001.055.033a4.325 4.325 0 0 0 2.309 1.885c.122-.032.248.092.375.097.374.105.763.157 1.152.158v-.154a3.969 3.969 0 0 1-1.45-.264c-.179-.104-.403-.165-.587-.279-.676-.368-1.272-.923-1.637-1.601-.01-.055.065-.003.055.03.485.821 1.277 1.48 2.174 1.778.104-.037.213.08.32.082.365.106.745.158 1.125.16v-.191c-1.33-.002-2.646-.704-3.357-1.838A3.936 3.936 0 0 1 1237 1a1 1 0 0 0-1-1zm6.051 4.92l.035.137.01-.002c0-.072-.016-.11-.041-.135zm.09.336l.01.039.01-.002c0-.021-.012-.022-.016-.037zm.065.244l.01.037s.01 0 .01-.002c0-.02-.014-.02-.018-.035zm.066.248l.01.031.01-.002c0-.017-.013-.016-.016-.029zm.068.252l.01.02c0-.012-.01-.01-.01-.02zm.065.244l.01.016c0-.01-.01-.007-.01-.016zm.045.168l.025.09a.144.144 0 0 0-.029-.09zm.07.26l.012.043c0-.016 0-.029-.012-.043zm-.051.14a6 6 0 0 1-.35.077c.047-.01.094-.012.141-.022a.25.25 0 0 0 .209-.054zm-.72.135a6 6 0 0 1-.315.033c.105-.007.21-.02.314-.033zM1241.049-4.996a5.815 5.815 0 0 0-1.824.266c-1.435.432-2.668 1.44-3.418 2.73l.187.11c.336-.581.76-1.11 1.282-1.528.213-.103.401-.315.623-.432.91-.584 1.998-.923 3.08-.898.058.029-.047.044-.066.023-1.3.013-2.608.501-3.578 1.354-.074.153-.279.232-.38.375-.343.343-.638.731-.882 1.15l.137.078a5.12 5.12 0 0 1 1.232-1.459c.215-.116.413-.321.64-.443.861-.538 1.882-.85 2.897-.826.06.027-.04.04-.062.021a5.362 5.362 0 0 0-3.42 1.29c-.045.142-.247.203-.328.33-.343.336-.637.72-.879 1.134l.135.078c.307-.53.699-1.012 1.176-1.394.208-.109.398-.306.617-.422.821-.512 1.794-.811 2.762-.787.058.024-.043.044-.061.023a5.074 5.074 0 0 0-3.258 1.23c-.05.136-.236.194-.317.315-.327.32-.61.686-.84 1.082l.137.078a4.708 4.708 0 0 1 1.12-1.326c.2-.101.379-.294.587-.404.782-.488 1.712-.772 2.633-.748.057.023-.04.042-.059.021a4.828 4.828 0 0 0-3.101 1.174c-.046.13-.225.187-.301.303-.311.304-.58.651-.799 1.027l.139.08c.278-.478.63-.915 1.062-1.256.235-.156.466-.356.725-.492.706-.402 1.526-.638 2.338-.615.05.024-.031.06-.06.031a4.579 4.579 0 0 0-2.949 1.12c-.048.134-.232.194-.312.316-.281.28-.525.6-.725.943l.135.076a4.221 4.221 0 0 1 1.006-1.19c.19-.112.367-.282.568-.392.697-.426 1.52-.676 2.336-.652.053.023-.03.058-.055.031-1.011.01-2.036.389-2.787 1.055-.034.122-.204.17-.271.277a4.37 4.37 0 0 0-.715.92l.129.074c.25-.429.57-.818.959-1.123.18-.103.346-.267.537-.369.657-.401 1.435-.639 2.205-.615.052.022-.03.057-.055.031-.953.01-1.922.367-2.629.994-.075.178-.321.265-.422.438-.193.212-.36.447-.506.695l.164.096c.694-1.202 2.042-2.005 3.438-2a3.987 3.987 0 0 1 2.021.535v-.002a1 1 0 0 0 1.366-.365 1 1 0 0 0-.366-1.366 1 1 0 0 0-.08-.04 6.116 6.116 0 0 0-2.867-.76zm-5.488 3.48a5.472 5.472 0 0 0-.117.268 6 6 0 0 1 .117-.268zm-.268.688c-.016.05-.038.099-.053.15-.01.008.001.012 0 .02a6 6 0 0 1 .055-.17zm.01.3c.014.005.024.013.04.012zm.197.053v.002a.183.183 0 0 0 .09.024zm.243.065v.004c.01.003.01-.003.014 0zm.242.066v.004c.01.006.014-.004.023 0zm.242.065v.004c.011.006.014-.002.023.002zm.242.064v.006c.017.01.023 0 .037.004zm.242.065v.006a.166.166 0 0 0 .096.02zm.237.064v.006c.03.018.045.006.068.012zM1244.848-2.852c0 .003 0 .007-.01.01l.01-.008v-.002zm-.178.176c-.01.005 0 .01-.01.016l.012-.012v-.004zm1.072.008a6 6 0 0 1 .094.13c-.03-.044-.06-.088-.094-.13zm-1.25.17c-.01.006 0 .012-.012.018l.014-.014v-.004zm-.183.176c-.03.017-.026.035-.04.053l.046-.045c0-.002 0-.006-.01-.008zm-.176.178a.153.153 0 0 0-.064.076l.07-.07c0-.002 0-.004-.01-.006zm2.06.146l-.189.11c.336.581.583 1.213.684 1.875-.018.235.072.504.062.753.05 1.082-.2 2.193-.762 3.118-.056.032-.015-.062.012-.069.64-1.131.87-2.508.617-3.775-.096-.14-.062-.358-.135-.516a5.605 5.605 0 0 0-.554-1.344l-.139.08a5.12 5.12 0 0 1 .648 1.8c-.01.244.073.52.065.777.036 1.014-.205 2.055-.733 2.922-.051.04-.016-.058.012-.067a5.36 5.36 0 0 0 .594-3.605c-.101-.11-.052-.316-.121-.45a5.365 5.365 0 0 0-.543-1.332l-.139.08c.306.532.528 1.112.621 1.717-.01.235.068.497.061.745.033.967-.196 1.96-.701 2.787-.049.04-.017-.06.01-.065.582-1.03.795-2.285.565-3.437-.092-.111-.05-.3-.116-.43a5.121 5.121 0 0 0-.517-1.271l-.137.08a4.71 4.71 0 0 1 .59 1.634c-.012.224.064.474.055.71.032.92-.185 1.868-.666 2.654-.048.039-.018-.055.01-.06.553-.981.754-2.178.533-3.274-.09-.105-.047-.288-.11-.412a4.855 4.855 0 0 0-.49-1.207l-.138.08c.276.48.477 1.003.556 1.549.021.298.077.618.062.927-.013.796-.22 1.603-.636 2.28-.05.028-.035-.057 0-.067a4.577 4.577 0 0 0 .504-3.113c-.092-.11-.052-.3-.118-.43a4.606 4.606 0 0 0-.455-1.097l-.135.078c.263.455.455.953.528 1.47.036.362.083.744.049 1.116-.05.67-.239 1.347-.594 1.918-.044.037-.036-.057 0-.065.497-.88.682-1.958.48-2.941-.088-.09-.046-.262-.105-.373a4.387 4.387 0 0 0-.437-1.079l-.13.075c.247.43.421.902.49 1.39 0 .208.06.434.054.65.019.77-.165 1.563-.57 2.217-.043.037-.035-.052 0-.062.468-.83.643-1.848.453-2.773-.117-.154-.066-.413-.166-.586a4.07 4.07 0 0 0-.352-.784l-.164.096c.704 1.219.716 2.813-.014 4.025a3.995 3.995 0 0 1-1.445 1.434 1 1 0 0 0-.363 1.365 1 1 0 0 0 1.363.367 1 1 0 0 0 0-.002 1 1 0 0 0 .019-.011l.04-.026a1 1 0 0 0 .015-.01c1.4-.838 2.44-2.259 2.783-3.859.33-1.447.074-3.004-.66-4.287zm-2.236.03c-.037.02-.036.043-.053.064l.06-.059c0-.002 0-.004-.01-.006z" font-family="sans-serif" font-weight="400" overflow="visible" transform="translate(-1233 7)" white-space="normal" style="line-height:normal;font-variant-ligatures:normal;font-variant-position:normal;font-variant-caps:normal;font-variant-numeric:normal;font-variant-alternates:normal;font-feature-settings:normal;text-indent:0;text-align:start;text-decoration-line:none;text-decoration-style:solid;text-decoration-color:#000;text-transform:none;text-orientation:mixed;shape-padding:0;isolation:auto;mix-blend-mode:normal"/></g></svg>